# xmcd
#
# Track frame offsets: 
#        150
#        14479
#        32689
#        46062
#        62054
#        77704
#        91136
#        106797
#        128586
#        141319
#        153629
#        165868
#
# Disc length: 2388 seconds
#
# Revision: 0
# Processed by: cddbd v1.5.2PL0 Copyright (c) Steve Scherf et al.
# Submitted via: ExactAudioCopy v0.95a5
#
DISCID=8a09520c
DTITLE=Doyle Lawson and Quicksilver - You Gotta Dig A Little Deeper
DYEAR=1900
DGENRE=Country
TTITLE0=Heartbreak Number Nine
TTITLE1=Four Walls
TTITLE2=The Girl In The Valley
TTITLE3=You Gotta Dig A Little Deeper
TTITLE4=Saving Grace
TTITLE5=Rosine
TTITLE6=Girl From West Virginia
TTITLE7=Blues For My Darling
TTITLE8=Love Me As You'd Love The Rain
TTITLE9=What Ain't To Be, Just Might Happen
TTITLE10=Oak Valley Girl
TTITLE11=When I'm Knee Deep In Bluegrass
EXTD=
EXTT0=
EXTT1=
EXTT2=
EXTT3=
EXTT4=
EXTT5=
EXTT6=
EXTT7=
EXTT8=
EXTT9=
EXTT10=
EXTT11=
PLAYORDER=
